subject_08
version=1
nRows=250
nColumns=3
inDegrees=yes
endheader
time	r_shoulder_elev	r_elbow_flex
37.6400	14.125529	24.863343
37.6500	14.125529	24.469874
37.6600	14.125529	24.122069
37.6700	14.125529	23.784080
37.6800	14.125529	23.431767
37.6900	14.125529	23.061867
37.7000	14.125529	22.689008
37.7100	14.125529	22.333454
37.7200	14.125529	22.006923
37.7300	14.125529	21.704486
37.7400	14.125529	21.407132
37.7500	14.125529	21.093890
37.7600	14.125529	20.757149
37.7700	14.125529	20.412676
37.7800	14.125529	20.097875
37.7900	14.125529	19.857350
37.8000	14.125529	19.721267
37.8100	14.125529	19.686300
37.8200	14.125529	19.708963
37.8300	14.125529	19.716486
37.8400	14.125529	19.632816
37.8500	14.125529	19.410190
37.8600	14.125529	19.053119
37.8700	14.125529	18.623560
37.8800	14.125529	18.223013
37.8900	14.125529	17.956708
37.9000	14.125529	17.892938
37.9100	14.125529	18.033663
37.9200	14.125529	18.308995
37.9300	14.125529	18.599316
37.9400	14.125529	18.777849
37.9500	14.125529	18.757957
37.9600	14.125529	18.526845
37.9700	14.125529	18.151998
37.9800	14.125529	17.756984
37.9900	14.125529	17.475226
38.0000	14.125529	17.399219
38.0100	14.125529	17.544855
38.0200	14.125529	17.844953
38.0300	14.125529	18.174842
38.0400	14.125529	18.400339
38.0500	14.125529	18.429558
38.0600	14.125529	18.248685
38.0700	14.125529	17.927251
38.0800	14.125529	17.590405
38.0900	14.125529	17.369788
38.1000	14.125529	17.351795
38.1100	14.125529	17.543427
38.1200	14.125529	17.869077
38.1300	14.125529	18.199515
38.1400	14.125529	18.401754
38.1500	14.125529	18.390410
38.1600	14.125529	18.160676
38.1700	14.125529	17.790313
38.1800	14.125529	17.410134
38.1900	14.125529	17.154595
38.2000	14.125529	17.111607
38.2100	14.125529	17.290621
38.2200	14.125529	17.620710
38.2300	14.125529	17.978632
38.2400	14.125529	18.235464
38.2500	14.125529	18.303691
38.2600	14.125529	18.167115
38.2700	14.125529	17.883196
38.2800	14.125529	17.557772
38.2900	14.125529	17.303480
38.3000	14.125529	17.198277
38.3100	14.125529	17.259670
38.3200	14.125529	17.443428
38.3300	14.125529	17.665690
38.3400	14.125529	17.838428
38.3500	14.125529	17.903695
38.3600	14.125529	17.853465
38.3700	14.125529	17.728328
38.3800	14.125529	17.597014
38.3900	14.125529	17.526155
38.4000	14.125529	17.552937
38.4100	14.125529	17.671423
38.4200	14.125529	17.837214
38.4300	14.125529	17.987577
38.4400	14.125529	18.068176
38.4500	14.125529	18.055397
38.4600	14.125529	17.965620
38.4700	14.125529	17.848379
38.4800	14.125529	17.766832
38.4900	14.125529	17.773675
38.5000	14.125529	17.891920
38.5100	14.125529	18.107477
38.5200	14.125529	18.375554
38.5300	14.125529	18.637577
38.5400	14.125529	18.841709
38.5500	14.125529	18.959383
38.5600	14.125529	18.992461
38.5700	14.125529	18.969616
38.5800	14.125529	18.934503
38.5900	14.125529	18.930840
38.6000	14.125529	18.989772
38.6100	14.125529	19.123218
38.6200	14.125529	19.324143
38.6300	14.125529	19.572172
38.6400	14.125529	19.841567
38.6500	14.125529	20.108605
38.6600	14.125529	20.356466
38.6700	14.125529	20.577187
38.6800	14.125529	20.771270
38.6900	14.125529	20.945895
38.7000	14.125529	21.112467
38.7100	14.125529	21.283804
38.7200	14.125529	21.471095
38.7300	14.125529	21.681033
38.7400	14.125529	21.913921
38.7500	14.125529	22.163770
38.7600	14.125529	22.421028
38.7700	14.125529	22.677488
38.7800	14.125529	22.931702
38.7900	14.125529	23.192311
38.8000	14.125529	23.476991
38.8100	14.125529	23.806188
38.8200	14.125529	24.193196
38.8300	14.125529	24.634336
38.8400	14.125529	25.103975
38.8500	14.125529	25.558025
38.8600	14.125529	25.946595
38.8700	14.125529	26.232497
38.8800	14.125529	26.409083
38.8900	14.125529	26.509857
38.9000	14.125529	26.604369
38.9100	14.125529	26.779608
38.9200	14.125529	27.111836
38.9300	14.125529	27.638285
38.9400	14.125529	28.339404
38.9500	14.125529	29.139458
38.9600	14.125529	29.927068
38.9700	14.125529	30.589860
38.9800	14.125529	31.051663
38.9900	14.125529	31.299030
39.0000	14.125529	31.387145
39.0100	14.125529	31.422415
39.0200	14.125529	31.527571
39.0300	14.125529	31.801613
39.0400	14.125529	32.288922
39.0500	14.125529	32.968316
39.0600	14.125529	33.765251
39.0700	14.125529	34.581537
39.0800	14.125529	35.330530
39.0900	14.125529	35.964161
39.1000	14.125529	36.482133
39.1100	14.125529	36.921347
39.1200	14.125529	37.331954
39.1300	14.125529	37.751797
39.1400	14.125529	38.191134
39.1500	14.125529	38.634422
39.1600	14.125529	39.057683
39.1700	14.125529	39.452329
39.1800	14.125529	39.842699
39.1900	14.125529	40.286717
39.2000	14.125529	40.856504
39.2100	14.125529	41.605237
39.2200	14.125529	42.534080
39.2300	14.125529	43.574991
39.2400	14.125529	44.600297
39.2500	14.125529	45.459637
39.2600	14.125529	46.033207
39.2700	14.125529	46.281924
39.2800	14.125529	46.274052
39.2900	14.125529	46.174985
39.3000	14.125529	46.200011
39.3100	14.125529	46.544210
39.3200	14.125529	47.313509
39.3300	14.125529	48.482223
39.3400	14.125529	49.894144
39.3500	14.125529	51.309082
39.3600	14.125529	52.480262
39.3700	14.125529	53.236228
39.3800	14.125529	53.538585
39.3900	14.125529	53.495008
39.4000	14.125529	53.322704
39.4100	14.125529	53.275112
39.4200	14.125529	53.557629
39.4300	14.125529	54.261735
39.4400	14.125529	55.339808
39.4500	14.125529	56.627983
39.4600	14.125529	57.907158
39.4700	14.125529	58.979139
39.4800	14.125529	59.730640
39.4900	14.125529	60.163597
39.5000	14.125529	60.383545
39.5100	14.125529	60.553385
39.5200	14.125529	60.831726
39.5300	14.125529	61.319148
39.5400	14.125529	62.030840
39.5500	14.125529	62.902782
39.5600	14.125529	63.825603
39.5700	14.125529	64.690454
39.5800	14.125529	65.428407
39.5900	14.125529	66.029314
39.6000	14.125529	66.535595
39.6100	14.125529	67.016717
39.6200	14.125529	67.537095
39.6300	14.125529	68.131253
39.6400	14.125529	68.795355
39.6500	14.125529	69.496268
39.6600	14.125529	70.191678
39.6700	14.125529	70.850737
39.6800	14.125529	71.465780
39.6900	14.125529	72.050811
39.7000	14.125529	72.629198
39.7100	14.125529	73.218087
39.7200	14.125529	73.818155
39.7300	14.125529	74.414114
39.7400	14.125529	74.985597
39.7500	14.125529	75.522393
39.7600	14.125529	76.035466
39.7700	14.125529	76.556840
39.7800	14.125529	77.126814
39.7900	14.125529	77.773473
39.8000	14.125529	78.494015
39.8100	14.125529	79.247723
39.8200	14.125529	79.965957
39.8300	14.125529	80.577130
39.8400	14.125529	81.037364
39.8500	14.125529	81.353837
39.8600	14.125529	81.589612
39.8700	14.125529	81.845651
39.8800	14.125529	82.225114
39.8900	14.125529	82.793032
39.9000	14.125529	83.547476
39.9100	14.125529	84.414872
39.9200	14.125529	85.273077
39.9300	14.125529	85.994835
39.9400	14.125529	86.495580
39.9500	14.125529	86.766984
39.9600	14.125529	86.882510
39.9700	14.125529	86.971741
39.9800	14.125529	87.172519
39.9900	14.125529	87.578902
40.0000	14.125529	88.205099
40.0100	14.125529	88.979671
40.0200	14.125529	89.772709
40.0300	14.125529	90.445786
40.0400	14.125529	90.905427
40.0500	14.125529	91.139274
40.0600	14.125529	91.220711
40.0700	14.125529	91.280023
40.0800	14.125529	91.453247
40.0900	14.125529	91.828686
40.1000	14.125529	92.412009
40.1100	14.125529	93.123607
40.1200	14.125529	93.829270
40.1300	14.125529	94.392210
